<svg xmlns="http://www.w3.org/2000/svg" viewBox="0 0 597.03 520.769" fill="#000">
  <g transform="translate(0 8.602)">
    <path d="M 12.801 196.875 L 6.369 200.734 L 7.82 203.152 L 10.506 204.015 L 12.801 196.875 Z M 583.892 190.926 L 587.11 197.701 L 588.599 196.994 L 589.654 195.728 L 583.892 190.926 Z M 137.725 60.051 L 135.751 67.287 L 142.596 69.154 L 144.84 62.423 L 137.725 60.051 Z M 322.139 36.256 L 314.639 36.256 L 314.639 50.27 L 326.3 42.497 L 322.139 36.256 Z M 518.452 89.795 L 511.131 91.422 L 512.673 98.362 L 519.685 97.194 L 518.452 89.795 Z M 580.674 184.152 C 502.993 221.05 279.698 274.786 15.096 189.735 L 10.506 204.015 C 278.922 290.292 506.154 236.155 587.11 197.701 L 580.674 184.152 Z M 19.232 193.016 C 8.129 174.513 -4.515 129.615 30.002 95.099 L 19.395 84.492 C -22.234 126.121 -6.324 179.579 6.369 200.734 L 19.232 193.016 Z M 30.002 95.099 C 65.45 59.65 115.374 61.729 135.751 67.287 L 139.698 52.815 C 116.452 46.475 60.092 43.795 19.395 84.492 L 30.002 95.099 Z M 144.84 62.423 C 149.751 47.69 175.53 12.606 239.39 8.044 L 238.321 -6.918 C 168.926 -1.961 137.596 36.719 130.609 57.679 L 144.84 62.423 Z M 239.39 8.044 C 271.792 5.73 290.844 11.136 301.517 17.786 C 312.115 24.389 314.639 32.245 314.639 36.256 L 329.639 36.256 C 329.639 26.387 323.835 14.017 309.449 5.054 C 295.136 -3.863 272.546 -9.362 238.321 -6.918 L 239.39 8.044 Z M 326.3 42.497 C 342.95 31.397 389.5 12.107 439.144 25.646 L 443.09 11.174 C 388.033 -3.841 337.022 17.321 317.979 30.016 L 326.3 42.497 Z M 439.144 25.646 C 488.426 39.086 507.678 75.883 511.131 91.422 L 525.774 88.168 C 521.295 68.015 498.508 26.288 443.09 11.174 L 439.144 25.646 Z M 519.685 97.194 C 529.218 95.605 556.205 98.029 578.13 124.342 L 589.654 114.74 C 563.992 83.943 531.485 80.021 517.22 82.397 L 519.685 97.194 Z M 578.13 124.342 C 588.545 136.84 590.583 149.547 589.101 160.472 C 587.581 171.678 582.315 181.104 578.13 186.125 L 589.654 195.728 C 595.384 188.852 602.015 176.862 603.964 162.488 C 605.953 147.833 603.033 130.796 589.654 114.74 L 578.13 124.342 Z" fill-rule="nonzero"></path>
  </g>
  <g transform="translate(12.798 199.53)">
    <path d="M 0 154.671 L 0 5.949 C 266.509 91.613 491.773 37.676 571.092 0 C 571.092 0 571.092 130.875 565.143 172.517 C 559.194 214.159 439.733 233.548 422.37 232.006 C 405.61 230.517 410.472 255.801 434.268 261.75 C 458.063 267.699 469.961 279.597 455.402 291.495 C 440.842 303.392 392.625 315.29 362.881 303.392 C 339.822 294.169 334.639 277.794 330.703 265.356 C 329.561 261.75 328.525 258.475 327.188 255.801 C 321.239 243.904 249.853 249.853 237.955 255.801 C 230.393 259.582 230.04 263.363 229.26 271.726 C 228.813 276.521 228.225 282.823 226.057 291.495 C 220.108 315.29 190.364 321.239 172.517 321.239 C 154.671 321.239 118.977 315.29 118.977 297.444 C 118.977 286.924 127.245 284.672 136.471 282.159 C 142.896 280.409 149.786 278.533 154.671 273.648 C 164.189 264.13 158.637 249.853 154.671 243.904 C 41.642 232.006 0 178.466 0 154.671 Z M 490.729 149.433 C 491.886 159.221 487.534 167.782 481.008 168.553 C 474.483 169.324 468.255 162.014 467.098 152.226 C 465.942 142.438 470.294 133.877 476.819 133.106 C 483.345 132.335 489.573 139.645 490.729 149.433 Z M 325.312 168.982 C 326.469 178.77 322.117 187.33 315.591 188.102 C 309.066 188.873 302.838 181.563 301.681 171.775 C 300.525 161.986 304.877 153.426 311.402 152.655 C 317.928 151.884 324.156 159.194 325.312 168.982 Z" fill-rule="evenodd"></path>
    <path d="M 0 5.949 L 1.53 1.189 L -5 -0.91 L -5 5.949 L 0 5.949 Z M 571.092 0 L 576.092 0 L 576.092 -7.91 L 568.946 -4.516 L 571.092 0 Z M 565.143 172.517 L 560.193 171.81 L 560.193 171.81 L 565.143 172.517 Z M 422.37 232.006 L 421.927 236.986 L 421.927 236.986 L 422.37 232.006 Z M 434.268 261.75 L 433.055 266.601 L 433.055 266.601 L 434.268 261.75 Z M 455.402 291.495 L 452.238 287.623 L 452.238 287.623 L 455.402 291.495 Z M 362.881 303.392 L 364.738 298.75 L 364.738 298.75 L 362.881 303.392 Z M 330.703 265.356 L 335.47 263.847 L 335.47 263.847 L 330.703 265.356 Z M 327.188 255.801 L 331.66 253.565 L 331.66 253.565 L 327.188 255.801 Z M 237.955 255.801 L 235.719 251.329 L 235.719 251.329 L 237.955 255.801 Z M 229.26 271.726 L 234.239 272.191 L 234.239 272.191 L 229.26 271.726 Z M 136.471 282.159 L 135.157 277.335 L 135.157 277.335 L 136.471 282.159 Z M 154.671 273.648 L 158.206 277.184 L 158.206 277.184 L 154.671 273.648 Z M 154.671 243.904 L 158.831 241.13 L 157.529 239.177 L 155.194 238.931 L 154.671 243.904 Z M 481.008 168.553 L 480.422 163.587 L 480.422 163.587 L 481.008 168.553 Z M 490.729 149.433 L 495.695 148.846 L 495.695 148.846 L 490.729 149.433 Z M 467.098 152.226 L 462.133 152.813 L 462.133 152.813 L 467.098 152.226 Z M 476.819 133.106 L 477.406 138.072 L 477.406 138.072 L 476.819 133.106 Z M 315.591 188.102 L 315.005 183.136 L 315.005 183.136 L 315.591 188.102 Z M 311.402 152.655 L 310.816 147.69 L 310.816 147.69 L 311.402 152.655 Z M -5 5.949 L -5 154.671 L 5 154.671 L 5 5.949 L -5 5.949 Z M 568.946 -4.516 C 490.72 32.641 266.768 86.444 1.53 1.189 L -1.53 10.709 C 266.25 96.781 492.827 42.711 573.237 4.516 L 568.946 -4.516 Z M 570.093 173.224 C 573.119 152.037 574.605 108.572 575.347 70.741 C 575.719 51.752 575.905 34.07 575.999 21.136 C 576.045 14.668 576.068 9.387 576.08 5.721 C 576.086 3.888 576.089 2.459 576.09 1.487 C 576.091 1.002 576.091 0.63 576.091 0.38 C 576.091 0.255 576.092 0.16 576.092 0.097 C 576.092 0.065 576.092 0.041 576.092 0.025 C 576.092 0.017 576.092 0.011 576.092 0.006 C 576.092 0.004 576.092 0.003 576.092 0.002 C 576.092 0.001 576.092 0 571.092 0 C 566.092 0 566.092 0 566.092 0.001 C 566.092 0.002 566.092 0.004 566.092 0.006 C 566.092 0.009 566.092 0.015 566.092 0.023 C 566.092 0.039 566.092 0.062 566.092 0.093 C 566.092 0.156 566.092 0.249 566.091 0.373 C 566.091 0.621 566.091 0.989 566.09 1.472 C 566.089 2.439 566.086 3.862 566.08 5.689 C 566.068 9.343 566.045 14.611 565.999 21.064 C 565.906 33.97 565.72 51.609 565.349 70.545 C 564.604 108.562 563.115 151.355 560.193 171.81 L 570.093 173.224 Z M 421.927 236.986 C 426.98 237.435 438.288 236.395 451.976 234.152 C 465.885 231.871 482.846 228.246 499.477 223.244 C 516.059 218.256 532.564 211.825 545.406 203.844 C 558.041 195.99 568.28 185.913 570.093 173.224 L 560.193 171.81 C 559.031 179.942 552.107 187.905 540.127 195.35 C 528.354 202.668 512.794 208.796 496.597 213.668 C 480.448 218.525 463.917 222.061 450.358 224.283 C 436.577 226.542 426.442 227.348 422.812 227.026 L 421.927 236.986 Z M 435.48 256.9 C 425.076 254.298 419.417 247.633 417.893 242.632 C 417.114 240.074 417.553 238.581 417.95 237.996 C 418.181 237.655 418.99 236.725 421.927 236.986 L 422.812 227.026 C 417.37 226.542 412.501 228.215 409.674 232.382 C 407.013 236.305 407.012 241.226 408.327 245.546 C 410.994 254.302 419.664 263.253 433.055 266.601 L 435.48 256.9 Z M 458.565 295.366 C 462.71 291.98 465.631 288.067 466.496 283.618 C 467.395 278.993 465.89 274.758 463.135 271.284 C 457.933 264.727 447.62 259.935 435.48 256.9 L 433.055 266.601 C 444.71 269.515 452.244 273.646 455.3 277.499 C 456.674 279.231 456.901 280.573 456.68 281.71 C 456.424 283.024 455.373 285.061 452.238 287.623 L 458.565 295.366 Z M 361.024 308.035 C 377.119 314.473 397.665 314.341 415.669 311.297 C 424.75 309.762 433.375 307.454 440.721 304.735 C 447.987 302.047 454.313 298.841 458.565 295.366 L 452.238 287.623 C 449.21 290.097 444.05 292.841 437.25 295.357 C 430.532 297.844 422.514 299.998 414.002 301.437 C 396.822 304.342 378.388 304.21 364.738 298.75 L 361.024 308.035 Z M 325.936 266.865 C 327.887 273.031 330.353 280.916 335.499 288.41 C 340.732 296.031 348.583 303.058 361.024 308.035 L 364.738 298.75 C 354.12 294.503 347.85 288.731 343.743 282.749 C 339.548 276.641 337.454 270.119 335.47 263.847 L 325.936 266.865 Z M 322.716 258.038 C 323.841 260.287 324.759 263.148 325.936 266.865 L 335.47 263.847 C 334.363 260.353 333.209 256.664 331.66 253.565 L 322.716 258.038 Z M 240.191 260.274 C 241.114 259.812 243.041 259.173 246.075 258.48 C 249.003 257.811 252.647 257.16 256.787 256.568 C 265.064 255.386 275.114 254.471 284.987 254.106 C 294.895 253.739 304.433 253.932 311.752 254.902 C 315.43 255.39 318.327 256.046 320.362 256.817 C 322.611 257.669 322.847 258.299 322.716 258.038 L 331.66 253.565 C 330.042 250.329 326.745 248.542 323.906 247.466 C 320.851 246.308 317.103 245.524 313.066 244.989 C 304.954 243.914 294.787 243.736 284.617 244.112 C 274.413 244.49 264.014 245.435 255.373 246.669 C 251.055 247.286 247.124 247.983 243.847 248.731 C 240.677 249.455 237.77 250.304 235.719 251.329 L 240.191 260.274 Z M 234.239 272.191 C 234.656 267.711 234.91 265.652 235.608 264.132 C 236.103 263.055 237.019 261.86 240.191 260.274 L 235.719 251.329 C 231.329 253.524 228.288 256.11 226.52 259.959 C 224.956 263.366 224.644 267.378 224.282 271.262 L 234.239 272.191 Z M 230.908 292.707 C 233.171 283.656 233.785 277.048 234.239 272.191 L 224.282 271.262 C 223.84 275.995 223.279 281.99 221.206 290.282 L 230.908 292.707 Z M 172.517 326.239 C 181.885 326.239 194.503 324.693 205.718 319.886 C 216.975 315.062 227.422 306.651 230.908 292.707 L 221.206 290.282 C 218.743 300.134 211.344 306.595 201.779 310.694 C 192.174 314.811 180.996 316.239 172.517 316.239 L 172.517 326.239 Z M 113.977 297.444 C 113.977 303.795 117.221 308.799 121.604 312.508 C 125.911 316.152 131.598 318.819 137.474 320.777 C 149.252 324.703 163.192 326.239 172.517 326.239 L 172.517 316.239 C 163.996 316.239 151.166 314.8 140.636 311.29 C 135.358 309.531 131.006 307.364 128.063 304.874 C 125.195 302.447 123.977 300.015 123.977 297.444 L 113.977 297.444 Z M 135.157 277.335 C 130.79 278.524 125.505 279.906 121.451 282.665 C 119.302 284.128 117.367 286.049 115.998 288.624 C 114.631 291.196 113.977 294.143 113.977 297.444 L 123.977 297.444 C 123.977 295.484 124.357 294.204 124.829 293.317 C 125.298 292.433 126.007 291.661 127.078 290.932 C 129.464 289.308 132.926 288.307 137.785 286.983 L 135.157 277.335 Z M 151.135 270.113 C 147.351 273.896 141.847 275.513 135.157 277.335 L 137.785 286.983 C 143.945 285.306 152.221 283.169 158.206 277.184 L 151.135 270.113 Z M 150.51 246.677 C 152.159 249.15 154.189 253.482 154.766 258.063 C 155.33 262.531 154.49 266.757 151.135 270.113 L 158.206 277.184 C 164.369 271.02 165.512 263.349 164.688 256.812 C 163.878 250.387 161.149 244.607 158.831 241.13 L 150.51 246.677 Z M -5 154.671 C -5 161.943 -1.882 170.711 4.105 179.742 C 10.15 188.858 19.329 198.571 32.009 207.793 C 57.387 226.249 96.932 242.854 154.147 248.876 L 155.194 238.931 C 99.38 233.056 61.591 216.942 37.89 199.705 C 26.032 191.081 17.735 182.202 12.44 174.216 C 7.088 166.144 5 159.296 5 154.671 L -5 154.671 Z M 481.595 173.518 C 487.035 172.875 490.961 169.058 493.207 164.64 C 495.472 160.185 496.373 154.584 495.695 148.846 L 485.764 150.02 C 486.243 154.071 485.546 157.643 484.293 160.108 C 483.021 162.611 481.508 163.459 480.422 163.587 L 481.595 173.518 Z M 462.133 152.813 C 462.811 158.55 464.993 163.787 468.234 167.592 C 471.448 171.364 476.156 174.161 481.595 173.518 L 480.422 163.587 C 479.336 163.716 477.667 163.243 475.846 161.107 C 474.053 159.002 472.543 155.69 472.064 151.639 L 462.133 152.813 Z M 476.233 128.141 C 470.793 128.784 466.867 132.601 464.621 137.019 C 462.356 141.474 461.455 147.075 462.133 152.813 L 472.064 151.639 C 471.585 147.588 472.282 144.016 473.535 141.551 C 474.807 139.048 476.32 138.2 477.406 138.072 L 476.233 128.141 Z M 495.695 148.846 C 495.017 143.109 492.835 137.872 489.594 134.067 C 486.38 130.295 481.672 127.498 476.233 128.141 L 477.406 138.072 C 478.492 137.943 480.161 138.416 481.982 140.552 C 483.775 142.657 485.285 145.969 485.764 150.02 L 495.695 148.846 Z M 316.178 193.067 C 321.618 192.424 325.544 188.607 327.79 184.189 C 330.055 179.734 330.956 174.133 330.278 168.395 L 320.347 169.569 C 320.826 173.619 320.129 177.192 318.876 179.657 C 317.604 182.159 316.091 183.008 315.005 183.136 L 316.178 193.067 Z M 296.716 172.361 C 297.394 178.099 299.576 183.336 302.817 187.14 C 306.031 190.913 310.739 193.71 316.178 193.067 L 315.005 183.136 C 313.919 183.264 312.25 182.792 310.429 180.655 C 308.636 178.55 307.126 175.238 306.647 171.188 L 296.716 172.361 Z M 310.816 147.69 C 305.376 148.332 301.45 152.15 299.204 156.567 C 296.939 161.022 296.038 166.624 296.716 172.361 L 306.647 171.188 C 306.168 167.137 306.865 163.564 308.118 161.099 C 309.39 158.597 310.903 157.749 311.989 157.62 L 310.816 147.69 Z M 330.278 168.395 C 329.6 162.657 327.418 157.42 324.177 153.616 C 320.963 149.844 316.255 147.047 310.816 147.69 L 311.989 157.62 C 313.075 157.492 314.744 157.964 316.565 160.101 C 318.358 162.206 319.868 165.518 320.347 169.569 L 330.278 168.395 Z" fill-rule="nonzero"></path>
  </g>
  <g transform="matrix(1 0.003 -0.003 1 138.554 0)">
    <g transform="translate(0 65.584)">
      <path d="M 0 43.804 L -3.536 40.269 L -9.734 46.467 L -1.244 48.647 L 0 43.804 Z M 3.536 47.34 C 17.942 32.933 37.79 16.301 54.617 8.852 C 63.136 5.081 69.817 4.146 74.412 5.755 C 78.472 7.176 82.438 11.191 84.167 21.628 L 94.033 19.994 C 91.975 7.573 86.538 -0.595 77.716 -3.684 C 69.43 -6.584 59.751 -4.356 50.57 -0.292 C 31.996 7.93 11.081 25.652 -3.536 40.269 L 3.536 47.34 Z M 84.167 21.628 C 85.884 31.989 83.57 37.831 79.887 41.352 C 75.918 45.147 69.295 47.307 60.331 47.864 C 42.442 48.975 19.033 43.53 1.244 38.962 L -1.244 48.647 C 16.303 53.153 41.231 59.069 60.951 57.844 C 70.792 57.233 80.292 54.8 86.798 48.58 C 93.59 42.086 96.103 32.491 94.033 19.994 L 84.167 21.628 Z" fill-rule="nonzero"></path>
    </g>
    <g transform="matrix(0.604 0.797 -0.797 0.604 122.218 0)">
      <path d="M 0 43.804 L -3.536 40.269 L -9.734 46.467 L -1.244 48.647 L 0 43.804 Z M 3.536 47.34 C 17.942 32.933 37.79 16.301 54.617 8.852 C 63.136 5.081 69.817 4.146 74.412 5.755 C 78.472 7.176 82.438 11.191 84.167 21.628 L 94.033 19.994 C 91.975 7.573 86.538 -0.595 77.716 -3.684 C 69.43 -6.584 59.751 -4.356 50.57 -0.292 C 31.996 7.93 11.081 25.652 -3.536 40.269 L 3.536 47.34 Z M 84.167 21.628 C 85.884 31.989 83.57 37.831 79.887 41.352 C 75.918 45.147 69.295 47.307 60.331 47.864 C 42.442 48.975 19.033 43.53 1.244 38.962 L -1.244 48.647 C 16.303 53.153 41.231 59.069 60.951 57.844 C 70.792 57.233 80.292 54.8 86.798 48.58 C 93.59 42.086 96.103 32.491 94.033 19.994 L 84.167 21.628 Z" fill-rule="nonzero"></path>
    </g>
    <g transform="matrix(0.749 -0.662 0.662 0.749 79.97 129.292)">
      <path d="M 0 26.295 L -4.021 23.323 L -8.06 28.788 L -1.641 31.018 L 0 26.295 Z M 4.021 29.267 C 11.21 19.54 21.914 9.844 30.707 6.325 C 35.103 4.566 37.941 4.759 39.648 5.748 C 41.317 6.715 43.565 9.412 44.458 16.705 L 54.384 15.49 C 53.329 6.869 50.291 0.358 44.662 -2.904 C 39.07 -6.144 32.597 -5.202 26.992 -2.959 C 15.782 1.527 3.724 12.844 -4.021 23.323 L 4.021 29.267 Z M 44.458 16.705 C 45.347 23.967 43.823 27.054 42.417 28.419 C 40.9 29.891 38.078 30.799 33.292 30.51 C 28.63 30.227 23.124 28.866 17.445 27.074 C 11.731 25.271 6.398 23.225 1.641 21.572 L -1.641 31.018 C 2.693 32.524 8.57 34.76 14.436 36.611 C 20.336 38.472 26.78 40.134 32.688 40.491 C 38.472 40.841 44.839 40.004 49.383 35.594 C 54.037 31.076 55.444 24.142 54.384 15.49 L 44.458 16.705 Z" fill-rule="nonzero"></path>
    </g>
    <g transform="matrix(-0.744 -0.668 0.668 -0.744 184.578 149.293)">
      <path d="M 0 26.295 L -4.021 23.323 L -8.06 28.788 L -1.641 31.018 L 0 26.295 Z M 4.021 29.267 C 11.21 19.54 21.914 9.844 30.707 6.325 C 35.103 4.566 37.941 4.759 39.648 5.748 C 41.317 6.715 43.565 9.412 44.458 16.705 L 54.384 15.49 C 53.329 6.869 50.291 0.358 44.662 -2.904 C 39.07 -6.144 32.597 -5.202 26.992 -2.959 C 15.782 1.527 3.724 12.844 -4.021 23.323 L 4.021 29.267 Z M 44.458 16.705 C 45.347 23.967 43.823 27.054 42.417 28.419 C 40.9 29.891 38.078 30.799 33.292 30.51 C 28.63 30.227 23.124 28.866 17.445 27.074 C 11.731 25.271 6.398 23.225 1.641 21.572 L -1.641 31.018 C 2.693 32.524 8.57 34.76 14.436 36.611 C 20.336 38.472 26.78 40.134 32.688 40.491 C 38.472 40.841 44.839 40.004 49.383 35.594 C 54.037 31.076 55.444 24.142 54.384 15.49 L 44.458 16.705 Z" fill-rule="nonzero"></path>
    </g>
    <g transform="matrix(0.302 -0.953 0.953 0.302 247.349 120.522)">
      <path d="M 0 36.296 L -4.792 34.867 L -5.231 36.34 L -4.767 37.805 L 0 36.296 Z M 4.792 37.724 C 6.679 31.393 11.069 24.841 16.939 19.189 C 22.792 13.554 29.815 9.106 36.56 6.779 C 43.387 4.424 49.249 4.447 53.433 6.612 C 57.384 8.657 61.079 13.272 62.274 23.03 L 72.2 21.814 C 70.743 9.922 65.808 1.756 58.029 -2.269 C 50.483 -6.174 41.518 -5.51 33.298 -2.674 C 24.996 0.191 16.753 5.487 10.003 11.985 C 3.271 18.467 -2.28 26.441 -4.792 34.867 L 4.792 37.724 Z M 62.274 23.03 C 63.433 32.499 60.723 38.49 56.572 42.315 C 52.209 46.335 45.579 48.577 38 48.961 C 30.467 49.344 22.569 47.85 16.256 45.05 C 9.772 42.173 5.902 38.371 4.767 34.786 L -4.767 37.805 C -2.373 45.364 4.589 50.813 12.201 54.19 C 19.985 57.644 29.45 59.408 38.507 58.949 C 47.517 58.491 56.704 55.792 63.349 49.669 C 70.205 43.35 73.691 33.996 72.2 21.814 L 62.274 23.03 Z" fill-rule="nonzero"></path>
    </g>
  </g>
</svg>